<svg width="944" height="560" viewBox="0 0 944 560" fill="none" xmlns="http://www.w3.org/2000/svg">
<rect width="944" height="560" fill="white"/>
<path d="M543.722 350.801L464.671 213.175H511.208L543.722 275.74L576.236 213.175H622.773L543.722 350.801ZM267.051 350.801L188 213.175H234.537L267.051 275.74L299.565 213.175H346.102L267.051 350.801ZM405.393 242.37C419.196 242.37 429.896 251.863 433.164 266.206H377.554C381.277 251.298 391.15 242.37 405.393 242.37ZM474.558 280.507C474.558 241.02 443.588 209.014 405.393 209.014C367.185 209.014 336.229 241.02 336.229 280.507C336.229 319.994 367.226 352 406.593 352C438.031 352 462.686 333.014 470.89 306.712H429.262C423.484 315.255 414.99 317.431 406.607 317.431C390.515 317.431 380.257 306.368 377.044 291.212H473.799C474.296 287.726 474.558 284.144 474.558 280.507ZM684.45 313.863C666.566 313.863 653.439 299.562 653.439 280.493C653.439 261.425 666.566 247.123 684.45 247.123C702.334 247.123 715.461 261.425 715.461 280.493C715.461 299.562 702.334 313.863 684.45 313.863ZM684.45 209C644.932 209 612.9 241.006 612.9 280.493C612.9 319.98 644.932 351.986 684.45 351.986C723.969 351.986 756 319.98 756 280.493C756 241.006 723.969 209 684.45 209Z" fill="black"/>
</svg>
